<?xml version="1.0" standalone="no"?>
<!DOCTYPE svg PUBLIC "-//W3C//DTD SVG 20010904//EN"
 "http://www.w3.org/TR/2001/REC-SVG-20010904/DTD/svg10.dtd">
<svg version="1.0" xmlns="http://www.w3.org/2000/svg"
 width="240.000000pt" height="240.000000pt" viewBox="0 0 240.000000 240.000000"
 preserveAspectRatio="xMidYMid meet">
<metadata>
Created by potrace 1.11, written by Peter Selinger 2001-2013
</metadata>
<g transform="translate(0.000000,240.000000) scale(0.100000,-0.100000)"
fill="#000000" stroke="none">
<path d="M203 1672 l-33 -3 0 -465 0 -465 78 3 77 3 2 170 c0 94 2 178 2 188
1 16 19 17 229 17 l228 0 0 -187 0 -188 79 -3 80 -3 0 465 0 464 -45 4 c-25 2
-61 1 -79 -2 l-35 -5 0 -197 0 -198 -228 0 -228 0 -1 23 c0 12 -1 102 -1 200
0 123 -4 177 -12 178 -54 3 -86 4 -113 1z"/>
<path d="M1238 1672 l-38 -3 3 -462 2 -462 77 -3 78 -3 2 355 3 356 157 -314
158 -314 46 1 46 2 158 314 c86 172 159 309 162 305 2 -5 4 -165 3 -356 l0
-348 77 0 78 0 0 58 c2 318 0 866 -4 869 -4 4 -116 6 -217 4 -22 -1 -32 -14
-82 -118 -30 -65 -93 -194 -138 -288 l-81 -170 -62 126 c-33 69 -96 198 -139
287 l-79 162 -51 1 c-29 0 -68 1 -87 2 -19 1 -52 1 -72 -1z"/>
</g>
</svg>
